<?xml version="1.0" encoding="utf-8"?>
<!-- Generator: Adobe Illustrator 16.0.0, SVG Export Plug-In . SVG Version: 6.00 Build 0)  -->
<!DOCTYPE svg PUBLIC "-//W3C//DTD SVG 1.1//EN" "http://www.w3.org/Graphics/SVG/1.1/DTD/svg11.dtd">
<svg version="1.1" id="Ebene_1" xmlns="http://www.w3.org/2000/svg" xmlns:xlink="http://www.w3.org/1999/xlink" x="0px" y="0px"
	 width="420px" height="122px" viewBox="0 0 420 122" enable-background="new 0 0 420 122" xml:space="preserve">
<g>
	<defs>
		<rect id="SVGID_1_" x="18" y="11.21" width="383.518" height="99.79"/>
	</defs>
	<clipPath id="SVGID_2_">
		<use xlink:href="#SVGID_1_"  overflow="visible"/>
	</clipPath>
	<path clip-path="url(#SVGID_2_)" fill="#FFFFFF" d="M397.835,84.086c0.319,0,0.532-0.213,0.586-0.533l2.877-15.984
		c1.013-5.861-1.492-9.591-6.873-9.591c-3.303,0-5.914,1.439-7.513,3.517h-0.054l0.48-2.398c0.053-0.32-0.107-0.533-0.427-0.533
		h-3.25c-0.32,0-0.533,0.213-0.586,0.533l-4.316,24.457c-0.053,0.32,0.16,0.533,0.427,0.533h3.25c0.319,0,0.479-0.213,0.533-0.533
		l2.717-15.293c0.693-3.836,3.623-6.446,6.873-6.446c3.677,0,5.063,2.45,4.316,6.767l-2.664,14.973
		c-0.054,0.32,0.16,0.533,0.426,0.533H397.835z M359.74,80.781c-3.517,0-4.956-2.023-4.956-5.594c0-2.398,1.014-7.193,2.025-9.164
		c1.385-2.771,3.463-4.21,6.287-4.21c3.57,0,4.955,2.078,4.955,5.595c0,2.451-1.012,7.193-1.971,9.217
		C364.695,79.344,362.564,80.781,359.74,80.781 M359.154,84.672c4.849,0,8.578-1.972,10.763-6.5
		c1.332-2.719,2.505-7.994,2.505-11.457c0-5.434-3.197-8.737-8.686-8.737c-4.901,0-8.579,1.971-10.815,6.5
		c-1.332,2.664-2.451,7.993-2.451,11.403C350.469,81.367,353.612,84.672,359.154,84.672 M339.174,84.086
		c0.318,0,0.479-0.213,0.532-0.533l4.368-24.457c0.055-0.32-0.105-0.533-0.426-0.533h-3.25c-0.319,0-0.533,0.213-0.586,0.533
		l-4.315,24.457c-0.054,0.32,0.159,0.533,0.479,0.533H339.174z M344.821,52.596c0.373,0,0.586-0.16,0.641-0.533l0.639-3.677
		c0.053-0.319-0.105-0.532-0.426-0.532h-3.518c-0.318,0-0.532,0.213-0.586,0.532l-0.639,3.677c-0.053,0.32,0.106,0.533,0.426,0.533
		H344.821z M326.174,84.352c0.318,0,0.533-0.213,0.586-0.533l0.479-2.877c0.055-0.318-0.105-0.533-0.426-0.533h-1.065
		c-2.397,0-3.037-0.691-2.558-3.463l2.771-14.652c0.053-0.213,0.159-0.319,0.318-0.319h3.996c0.32,0,0.533-0.214,0.586-0.533
		l0.428-2.344c0.053-0.32-0.107-0.533-0.428-0.533h-3.996c-0.158,0-0.266-0.106-0.213-0.32l1.279-7.192
		c0.053-0.32-0.107-0.533-0.426-0.533h-3.197c-0.32,0-0.533,0.213-0.586,0.533l-1.279,7.192c-0.053,0.214-0.16,0.32-0.373,0.32
		h-2.184c-0.32,0-0.533,0.16-0.587,0.533l-0.426,2.344c-0.054,0.319,0.106,0.533,0.426,0.533h2.132c0.213,0,0.319,0.106,0.266,0.319
		l-2.771,14.865c-0.905,5.01,0.587,7.193,5.329,7.193H326.174z M297.083,81.102c-3.037,0-4.477-1.332-4.477-3.463
		c0-3.197,1.973-5.063,6.98-5.063h4.901c0.214,0,0.32,0.107,0.267,0.32l-0.532,2.984C303.69,79.131,300.919,81.102,297.083,81.102
		 M306.354,84.086c0.32,0,0.533-0.213,0.586-0.533l2.984-16.943c1.119-6.181-1.279-8.632-8.046-8.632
		c-3.517,0-6.713,1.012-8.791,2.558c-0.213,0.159-0.268,0.426-0.16,0.692l0.959,2.397c0.16,0.267,0.426,0.267,0.746,0.053
		c1.385-1.064,3.356-1.971,6.287-1.971c4.528,0,5.541,1.492,4.901,5.115l-0.373,2.078c-0.053,0.213-0.159,0.318-0.373,0.318h-5.594
		c-7.033,0-11.083,3.092-11.083,9.006c0,3.943,2.877,6.447,7.033,6.447c3.836,0,6.447-1.439,7.886-3.41h0.054l-0.373,2.291
		c-0.054,0.32,0.106,0.533,0.426,0.533H306.354z M268.791,79.93c-3.356,0-4.742-1.918-4.742-5.168c0-2.719,0.746-6.502,1.972-8.952
		c1.332-2.61,3.197-3.996,5.861-3.996c3.196,0,4.688,2.024,4.688,5.222c0,2.344-0.904,6.873-1.971,9.004
		C273.267,78.758,271.189,79.93,268.791,79.93 M266.073,94.262c6.768,0,10.604-3.144,12.096-11.242l4.209-23.923
		c0.053-0.32-0.107-0.533-0.426-0.533h-3.145c-0.32,0-0.533,0.213-0.586,0.533l-0.479,2.557h-0.054
		c-0.746-2.131-2.717-3.676-6.18-3.676c-4.21,0-7.406,2.131-9.378,6.181c-1.492,3.143-2.344,8.578-2.344,11.508
		c0,4.902,2.396,8.152,7.353,8.152c3.463,0,5.754-1.332,7.299-3.516h0.054l-0.587,2.93c-0.799,4.85-3.355,7.087-7.353,7.087
		c-2.397,0-3.996-1.065-5.328-2.664c-0.213-0.319-0.479-0.319-0.799-0.106l-2.238,1.918c-0.266,0.16-0.318,0.479-0.105,0.799
		C259.52,92.664,262.451,94.262,266.073,94.262 M248.332,84.086c0.319,0,0.479-0.213,0.532-0.533l4.369-24.457
		c0.054-0.32-0.106-0.533-0.427-0.533h-3.25c-0.319,0-0.533,0.213-0.586,0.533l-4.316,24.457c-0.053,0.32,0.16,0.533,0.48,0.533
		H248.332z M253.98,52.596c0.373,0,0.586-0.16,0.64-0.533l0.639-3.677c0.054-0.319-0.106-0.532-0.426-0.532h-3.517
		c-0.319,0-0.533,0.213-0.587,0.532l-0.639,3.677c-0.053,0.32,0.106,0.533,0.426,0.533H253.98z M227.393,84.086
		c0.319,0,0.479-0.213,0.639-0.533l13.161-24.457c0.159-0.32,0-0.533-0.373-0.533h-3.464c-0.318,0-0.532,0.107-0.691,0.533
		l-9.697,18.703h-0.107l-3.09-18.703c-0.054-0.426-0.267-0.533-0.586-0.533h-3.251c-0.373,0-0.479,0.213-0.479,0.533l4.476,24.457
		c0.053,0.32,0.266,0.533,0.532,0.533H227.393z M198.249,81.102c-3.037,0-4.477-1.332-4.477-3.463c0-3.197,1.972-5.063,6.98-5.063
		h4.901c0.214,0,0.319,0.107,0.267,0.32l-0.533,2.984C204.855,79.131,202.085,81.102,198.249,81.102 M207.519,84.086
		c0.32,0,0.533-0.213,0.587-0.533l2.983-16.943c1.119-6.181-1.278-8.632-8.045-8.632c-3.518,0-6.714,1.012-8.791,2.558
		c-0.214,0.159-0.268,0.426-0.16,0.692l0.959,2.397c0.16,0.267,0.426,0.267,0.746,0.053c1.385-1.064,3.355-1.971,6.287-1.971
		c4.528,0,5.541,1.492,4.901,5.115l-0.373,2.078c-0.054,0.213-0.159,0.318-0.373,0.318h-5.595c-7.033,0-11.082,3.092-11.082,9.006
		c0,3.943,2.877,6.447,7.033,6.447c3.836,0,6.447-1.439,7.885-3.41h0.055l-0.373,2.291c-0.055,0.32,0.105,0.533,0.426,0.533H207.519
		z M154.345,83.553c-0.053,0.32,0.16,0.533,0.479,0.533h3.037c0.319,0,0.532-0.213,0.586-0.533l4.902-27.653h0.213l11.082,27.653
		c0.16,0.373,0.426,0.533,0.746,0.533h3.197c0.319,0,0.533-0.213,0.586-0.533l6.181-35.167c0.053-0.319-0.106-0.532-0.427-0.532
		h-3.09c-0.32,0-0.533,0.213-0.586,0.532l-4.955,27.653h-0.213l-10.977-27.653c-0.16-0.372-0.373-0.532-0.746-0.532h-3.196
		c-0.32,0-0.533,0.213-0.586,0.532L154.345,83.553z"/>
	<path clip-path="url(#SVGID_2_)" fill="#0068B3" d="M67.797,11.406C40.295,11.406,18,33.701,18,61.203S40.295,111,67.797,111"/>
	<path clip-path="url(#SVGID_2_)" fill="#EB6502" d="M67.797,11.406c27.502,0,49.797,22.295,49.797,49.797S95.299,111,67.797,111"/>
	<path clip-path="url(#SVGID_2_)" fill="#FFFFFF" d="M67.797,11.209C60.197,40.397,41.733,44.401,41.733,63.58
		c0,14.265,11.661,25.824,26.064,25.824c14.404,0,26.065-11.56,26.065-25.824C93.863,44.401,75.399,40.397,67.797,11.209"/>
</g>
</svg>
