<?xml version="1.0" encoding="utf-8"?>
<!-- Generator: Adobe Illustrator 16.0.0, SVG Export Plug-In . SVG Version: 6.00 Build 0)  -->
<!DOCTYPE svg PUBLIC "-//W3C//DTD SVG 1.1//EN" "http://www.w3.org/Graphics/SVG/1.1/DTD/svg11.dtd">
<svg version="1.1" id="Ebene_1" xmlns="http://www.w3.org/2000/svg" xmlns:xlink="http://www.w3.org/1999/xlink" x="0px" y="0px"
	 width="159.396px" height="56.25px" viewBox="0 0 159.396 56.25" enable-background="new 0 0 159.396 56.25" xml:space="preserve">
<g>
	<g>
		<defs>
			<rect id="SVGID_1_" x="0.829" y="0.087" width="157.425" height="54.997"/>
		</defs>
		<clipPath id="SVGID_2_">
			<use xlink:href="#SVGID_1_"  overflow="visible"/>
		</clipPath>
		<path clip-path="url(#SVGID_2_)" fill="#0068B3" d="M15.426,0.145c-8.062,0-14.597,6.536-14.597,14.597
			c0,8.061,6.536,14.595,14.597,14.595"/>
	</g>
	<g>
		<defs>
			<rect id="SVGID_3_" x="0.829" y="0.087" width="157.425" height="54.997"/>
		</defs>
		<clipPath id="SVGID_4_">
			<use xlink:href="#SVGID_3_"  overflow="visible"/>
		</clipPath>
		<path clip-path="url(#SVGID_4_)" fill="#EB6502" d="M15.426,0.145c8.062,0,14.597,6.536,14.597,14.597
			c0,8.061-6.535,14.595-14.597,14.595"/>
	</g>
	<g>
		<defs>
			<rect id="SVGID_5_" x="0.829" y="0.087" width="157.425" height="54.997"/>
		</defs>
		<clipPath id="SVGID_6_">
			<use xlink:href="#SVGID_5_"  overflow="visible"/>
		</clipPath>
		<path clip-path="url(#SVGID_6_)" fill="#FFFFFF" d="M15.426,0.087c-2.228,8.556-7.64,9.729-7.64,15.352
			c0,4.182,3.418,7.57,7.64,7.57c4.222,0,7.64-3.388,7.64-7.57C23.066,9.816,17.655,8.643,15.426,0.087"/>
	</g>
	<g>
		<defs>
			<rect id="SVGID_7_" x="0.829" y="0.087" width="157.425" height="54.997"/>
		</defs>
		<clipPath id="SVGID_8_">
			<use xlink:href="#SVGID_7_"  overflow="visible"/>
		</clipPath>
		<path clip-path="url(#SVGID_8_)" fill="#1A1A18" d="M142.661,51.883c0.686,2.109,2.401,3.201,4.741,3.201
			c2.285,0,4.042-1.191,4.687-3.26c0.215-0.662,0.312-1.813,0.312-2.908v-1.15c0-0.117-0.077-0.195-0.194-0.195h-4.392
			c-0.116,0-0.194,0.078-0.194,0.195v1.563c0,0.117,0.078,0.193,0.194,0.193H150c0.078,0,0.117,0.039,0.117,0.117
			c0,0.762-0.078,1.311-0.215,1.719c-0.354,1.072-1.347,1.658-2.518,1.658c-1.346,0-2.129-0.662-2.499-1.738
			c-0.155-0.486-0.233-1.17-0.233-3.043c0-1.895,0.078-2.559,0.233-3.045c0.37-1.072,1.153-1.736,2.499-1.736
			c1.287,0,2.089,0.586,2.674,1.639c0.038,0.078,0.136,0.137,0.254,0.098l1.639-0.721c0.1-0.059,0.116-0.176,0.079-0.273
			c-0.547-1.482-2.147-2.811-4.628-2.811c-2.34,0-4.057,1.092-4.74,3.201c-0.272,0.818-0.353,1.561-0.353,3.648
			C142.309,50.322,142.388,51.063,142.661,51.883 M135.42,47.434h-2.83c-0.077,0-0.117-0.037-0.117-0.117v-3.531
			c0-0.08,0.04-0.119,0.117-0.119h2.83c1.211,0,2.029,0.742,2.029,1.895C137.452,46.691,136.631,47.434,135.42,47.434
			 M139.872,54.869c0.135,0,0.215-0.117,0.135-0.252l-2.789-5.408c1.521-0.566,2.518-1.912,2.518-3.648
			c0-2.342-1.796-3.963-4.236-3.963h-5.131c-0.119,0-0.195,0.078-0.195,0.195v12.883c0,0.115,0.076,0.193,0.195,0.193h1.912
			c0.116,0,0.194-0.078,0.194-0.193v-5.057c0-0.078,0.04-0.117,0.118-0.117h2.283l2.535,5.174c0.061,0.135,0.139,0.193,0.293,0.193
			H139.872z M118.071,54.676c0,0.115,0.077,0.193,0.195,0.193h8.313c0.118,0,0.197-0.078,0.197-0.193v-1.68
			c0-0.117-0.079-0.195-0.197-0.195h-6.088c-0.078,0-0.117-0.039-0.117-0.117v-3.355c0-0.078,0.039-0.117,0.117-0.117h5.133
			c0.117,0,0.195-0.078,0.195-0.195v-1.678c0-0.117-0.078-0.197-0.195-0.197h-5.133c-0.078,0-0.117-0.039-0.117-0.115v-3.24
			c0-0.08,0.039-0.119,0.117-0.119h6.088c0.118,0,0.197-0.076,0.197-0.193v-1.68c0-0.117-0.079-0.195-0.197-0.195h-8.313
			c-0.118,0-0.195,0.078-0.195,0.195V54.676z M107.549,52.723v-3.455c0-0.078,0.039-0.115,0.117-0.115h2.772
			c1.287,0,2.011,0.74,2.011,1.834c0,1.111-0.724,1.854-2.011,1.854h-2.772C107.588,52.84,107.549,52.801,107.549,52.723
			 M107.667,47.123c-0.078,0-0.117-0.039-0.117-0.119v-3.26c0-0.078,0.039-0.115,0.117-0.115h2.654c1.172,0,1.893,0.701,1.893,1.754
			c0,1.037-0.721,1.74-1.893,1.74H107.667z M105.247,54.676c0,0.115,0.08,0.193,0.197,0.193h4.741c2.907,0,4.567-1.27,4.567-3.904
			c0-1.617-0.957-2.674-1.776-2.984v-0.039c0.84-0.449,1.541-1.309,1.541-2.811c0-2.127-1.326-3.533-4.136-3.533h-4.938
			c-0.118,0-0.196,0.078-0.196,0.195V54.676L105.247,54.676z M91.838,54.676c0,0.115,0.078,0.193,0.197,0.193h1.696
			c0.118,0,0.194-0.078,0.194-0.193v-9.135h0.078l5.426,9.135c0.078,0.135,0.177,0.193,0.332,0.193h1.775
			c0.117,0,0.194-0.078,0.194-0.193V41.793c0-0.117-0.077-0.195-0.194-0.195H99.84c-0.117,0-0.196,0.078-0.196,0.195v9.154h-0.076
			l-5.407-9.154c-0.078-0.137-0.175-0.195-0.332-0.195h-1.793c-0.119,0-0.197,0.078-0.197,0.195V54.676L91.838,54.676z
			 M80.127,54.676c0,0.115,0.08,0.193,0.197,0.193h8.314c0.115,0,0.193-0.078,0.193-0.193v-1.68c0-0.117-0.078-0.195-0.193-0.195
			h-6.092c-0.077,0-0.115-0.039-0.115-0.117v-3.355c0-0.078,0.038-0.117,0.115-0.117h5.135c0.115,0,0.195-0.078,0.195-0.195v-1.678
			c0-0.117-0.08-0.197-0.195-0.197h-5.135c-0.077,0-0.115-0.039-0.115-0.115v-3.24c0-0.08,0.038-0.119,0.115-0.119h6.092
			c0.115,0,0.193-0.076,0.193-0.193v-1.68c0-0.117-0.078-0.195-0.193-0.195h-8.314c-0.117,0-0.197,0.078-0.197,0.195V54.676z
			 M69.649,52.684v-8.898c0-0.08,0.039-0.119,0.118-0.119h1.971c1.464,0,2.362,0.488,2.752,1.678
			c0.137,0.371,0.235,0.957,0.235,2.891c0,1.912-0.098,2.518-0.235,2.889c-0.39,1.191-1.288,1.68-2.752,1.68h-1.971
			C69.688,52.801,69.649,52.762,69.649,52.684 M67.346,54.676c0,0.115,0.078,0.193,0.194,0.193h4.744
			c2.283,0,3.805-1.016,4.43-2.947c0.214-0.664,0.332-1.385,0.332-3.688c0-2.305-0.118-3.025-0.332-3.689
			c-0.625-1.934-2.146-2.947-4.43-2.947H67.54c-0.117,0-0.194,0.078-0.194,0.195V54.676z M53.938,54.676
			c0,0.115,0.078,0.193,0.195,0.193h1.699c0.117,0,0.195-0.078,0.195-0.193v-9.135h0.078l5.426,9.135
			c0.079,0.135,0.175,0.193,0.332,0.193h1.776c0.117,0,0.194-0.078,0.194-0.193V41.793c0-0.117-0.078-0.195-0.194-0.195H61.94
			c-0.117,0-0.195,0.078-0.195,0.195v9.154h-0.078l-5.406-9.154c-0.078-0.137-0.176-0.195-0.332-0.195h-1.796
			c-0.117,0-0.195,0.078-0.195,0.195V54.676z M47.732,54.676c0,0.115,0.078,0.193,0.195,0.193h1.912
			c0.117,0,0.196-0.078,0.196-0.193V41.793c0-0.117-0.079-0.195-0.196-0.195h-1.911c-0.118,0-0.195,0.078-0.195,0.195L47.732,54.676
			L47.732,54.676z M36.9,54.676c0,0.115,0.078,0.193,0.195,0.193h8.314c0.117,0,0.195-0.078,0.195-0.193v-1.68
			c0-0.117-0.078-0.195-0.195-0.195h-6.09c-0.078,0-0.117-0.039-0.117-0.117V41.793c0-0.117-0.079-0.195-0.195-0.195h-1.913
			c-0.118,0-0.195,0.078-0.195,0.195L36.9,54.676L36.9,54.676z"/>
	</g>
	<g>
		<defs>
			<rect id="SVGID_9_" x="0.829" y="0.087" width="157.425" height="54.997"/>
		</defs>
		<clipPath id="SVGID_10_">
			<use xlink:href="#SVGID_9_"  overflow="visible"/>
		</clipPath>
		<path clip-path="url(#SVGID_10_)" fill="#1A1A18" d="M149.549,35.77c0,0.117,0.078,0.195,0.195,0.195h8.313
			c0.118,0,0.194-0.078,0.194-0.195v-1.678c0-0.117-0.076-0.195-0.194-0.195h-6.089c-0.078,0-0.117-0.039-0.117-0.117v-3.354
			c0-0.078,0.039-0.116,0.117-0.116h5.133c0.117,0,0.195-0.078,0.195-0.195v-1.677c0-0.117-0.078-0.197-0.195-0.197h-5.133
			c-0.078,0-0.117-0.038-0.117-0.115v-3.24c0-0.078,0.039-0.117,0.117-0.117h6.089c0.118,0,0.194-0.078,0.194-0.195v-1.678
			c0-0.117-0.076-0.195-0.194-0.195h-8.313c-0.117,0-0.195,0.079-0.195,0.195V35.77z M136.61,35.77c0,0.117,0.078,0.195,0.196,0.195
			h1.911c0.117,0,0.197-0.078,0.197-0.195v-3.627l2.028-2.458l3.474,6.125c0.078,0.117,0.137,0.156,0.293,0.156h2.166
			c0.156,0,0.215-0.098,0.138-0.232l-4.589-7.826l4.119-4.957c0.099-0.117,0.039-0.253-0.076-0.253h-2.227
			c-0.137,0-0.215,0.039-0.314,0.156l-5.014,6.283v-6.244c0-0.117-0.078-0.195-0.197-0.195h-1.91c-0.118,0-0.196,0.079-0.196,0.195
			L136.61,35.77L136.61,35.77z M129.194,28.53h-2.828c-0.078,0-0.119-0.038-0.119-0.115v-3.533c0-0.078,0.041-0.117,0.119-0.117
			h2.828c1.211,0,2.03,0.742,2.03,1.893C131.224,27.79,130.405,28.53,129.194,28.53 M133.644,35.965
			c0.136,0,0.215-0.117,0.136-0.252l-2.789-5.406c1.522-0.565,2.518-1.911,2.518-3.647c0-2.342-1.797-3.962-4.236-3.962h-5.132
			c-0.116,0-0.195,0.079-0.195,0.195V35.77c0,0.117,0.079,0.195,0.195,0.195h1.913c0.115,0,0.193-0.078,0.193-0.195v-5.053
			c0-0.078,0.041-0.117,0.119-0.117h2.282l2.537,5.17c0.06,0.139,0.138,0.195,0.292,0.195H133.644z M111.845,35.77
			c0,0.117,0.075,0.195,0.194,0.195h8.313c0.117,0,0.195-0.078,0.195-0.195v-1.678c0-0.117-0.078-0.195-0.195-0.195h-6.09
			c-0.078,0-0.115-0.039-0.115-0.117v-3.354c0-0.078,0.037-0.116,0.115-0.116h5.133c0.117,0,0.195-0.078,0.195-0.195v-1.677
			c0-0.117-0.078-0.197-0.195-0.197h-5.133c-0.078,0-0.115-0.038-0.115-0.115v-3.24c0-0.078,0.037-0.117,0.115-0.117h6.09
			c0.117,0,0.195-0.078,0.195-0.195v-1.678c0-0.117-0.078-0.195-0.195-0.195h-8.313c-0.119,0-0.194,0.079-0.194,0.195V35.77z
			 M105.62,35.965c0.115,0,0.213-0.078,0.232-0.195l3.24-12.877c0.02-0.117-0.021-0.195-0.155-0.195h-1.815
			c-0.117,0-0.215,0.059-0.233,0.195l-2.052,8.937h-0.037l-2.538-8.937c-0.039-0.117-0.097-0.195-0.233-0.195h-1.365
			c-0.117,0-0.195,0.079-0.233,0.195l-2.479,8.937h-0.039l-2.107-8.937c-0.018-0.117-0.098-0.195-0.233-0.195h-1.836
			c-0.136,0-0.175,0.079-0.155,0.195l3.26,12.877c0.039,0.117,0.119,0.195,0.234,0.195h1.465c0.116,0,0.193-0.078,0.232-0.195
			l2.559-9.072h0.037l2.538,9.072c0.039,0.117,0.116,0.195,0.234,0.195H105.62z M88.267,35.965c0.118,0,0.196-0.078,0.196-0.195
			V24.882c0-0.078,0.039-0.117,0.115-0.117h3.475c0.117,0,0.195-0.078,0.195-0.195v-1.678c0-0.117-0.078-0.195-0.195-0.195h-9.484
			c-0.117,0-0.193,0.079-0.193,0.195v1.678c0,0.118,0.076,0.195,0.193,0.195h3.475c0.078,0,0.117,0.039,0.117,0.117V35.77
			c0,0.117,0.077,0.195,0.194,0.195H88.267z M73.006,33.777v-8.896c0-0.078,0.039-0.117,0.117-0.117h1.972
			c1.463,0,2.361,0.488,2.752,1.679c0.136,0.37,0.234,0.956,0.234,2.889c0,1.91-0.098,2.517-0.234,2.887
			c-0.391,1.191-1.289,1.677-2.752,1.677h-1.972C73.045,33.896,73.006,33.855,73.006,33.777 M70.702,35.77
			c0,0.117,0.079,0.195,0.196,0.195h4.742c2.283,0,3.805-1.016,4.429-2.945c0.217-0.665,0.332-1.385,0.332-3.687
			c0-2.304-0.115-3.026-0.332-3.688c-0.624-1.932-2.146-2.947-4.429-2.947h-4.742c-0.118,0-0.196,0.079-0.196,0.195V35.77z
			 M60.827,31.146l1.777-5.15h0.058l1.756,5.15H60.827z M56.963,35.77c-0.039,0.117,0,0.195,0.137,0.195h1.893
			c0.137,0,0.215-0.059,0.254-0.195l0.878-2.576h4.996l0.878,2.576c0.04,0.139,0.117,0.195,0.254,0.195h1.913
			c0.137,0,0.176-0.078,0.137-0.195l-4.489-12.877c-0.04-0.117-0.117-0.195-0.253-0.195h-1.796c-0.138,0-0.214,0.079-0.253,0.195
			L56.963,35.77z M53.177,35.965c0.117,0,0.196-0.078,0.196-0.195V24.882c0-0.078,0.039-0.117,0.117-0.117h3.474
			c0.117,0,0.196-0.078,0.196-0.195v-1.678c0-0.117-0.079-0.195-0.196-0.195h-9.486c-0.117,0-0.196,0.079-0.196,0.195v1.678
			c0,0.118,0.079,0.195,0.196,0.195h3.475c0.078,0,0.117,0.039,0.117,0.117V35.77c0,0.117,0.078,0.195,0.195,0.195H53.177z
			 M41.077,36.18c3.299,0,4.997-1.756,4.997-4.118c0-2.28-1.405-3.491-3.962-3.843l-0.702-0.097
			c-1.796-0.253-2.439-0.878-2.439-1.796c0-1.035,0.742-1.775,2.087-1.775c1.113,0,2.108,0.331,3.181,1.035
			c0.098,0.058,0.196,0.038,0.274-0.059l0.937-1.444c0.079-0.117,0.059-0.196-0.039-0.274c-1.053-0.799-2.634-1.327-4.293-1.327
			c-2.732,0-4.489,1.602-4.489,4.001c0,2.206,1.445,3.436,4.001,3.785l0.704,0.099c1.834,0.254,2.419,0.877,2.419,1.834
			c0,1.11-0.917,1.911-2.498,1.911c-1.483,0-2.752-0.723-3.61-1.404c-0.079-0.078-0.196-0.078-0.273,0.021l-1.21,1.403
			c-0.079,0.1-0.04,0.217,0.039,0.293C37.232,35.398,39.125,36.18,41.077,36.18"/>
	</g>
</g>
</svg>
